<svg xmlns="http://www.w3.org/2000/svg"
 viewBox="0 0 346 155"
 role="img" aria-label="Bilibili World classic logo">
  <path d="M 199.75 112.25 L 198.75 111.50 L 198.75 110.25 L 196.25 108.00 L 193.50 111.00 L 192.25 111.00 L 191.50 112.00 L 190.25 112.00 L 188.50 114.00 L 186.25 114.00 L 184.50 116.00 L 183.25 116.00 L 182.50 117.00 L 181.25 117.00 L 179.50 119.00 L 178.25 119.00 L 177.50 120.00 L 176.25 120.00 L 174.50 122.00 L 173.25 122.00 L 171.50 124.00 L 170.25 124.00 L 169.50 125.00 L 168.25 125.00 L 167.50 126.00 L 166.25 126.00 L 165.50 127.00 L 164.25 127.00 L 163.50 128.00 L 162.25 128.00 L 161.50 129.00 L 160.25 129.00 L 158.50 131.00 L 157.25 131.00 L 156.50 132.00 L 155.25 132.00 L 154.50 133.00 L 153.25 133.00 L 152.50 134.00 L 151.25 134.00 L 150.50 135.00 L 149.25 135.00 L 148.50 136.00 L 147.25 136.00 L 146.50 137.00 L 144.25 137.00 L 143.50 138.00 L 142.25 138.00 L 141.50 139.00 L 140.25 139.00 L 139.50 140.00 L 138.25 140.00 L 137.50 141.00 L 135.25 141.00 L 134.50 142.00 L 133.25 142.00 L 132.50 143.00 L 130.25 143.00 L 129.50 144.00 L 127.25 144.00 L 126.50 145.00 L 122.25 145.00 L 121.50 146.00 L 117.25 146.00 L 116.50 147.00 L 114.25 147.00 L 113.50 146.00 L 111.25 146.00 L 110.50 145.00 L 109.25 145.00 L 108.75 144.50 L 108.75 140.25 L 109.75 139.50 L 109.75 137.25 L 110.75 136.50 L 110.75 134.25 L 112.25 132.75 L 115.50 132.75 L 118.75 129.50 L 118.75 126.25 L 117.75 125.50 L 117.75 124.25 L 118.75 123.50 L 118.75 122.25 L 123.75 117.50 L 123.50 116.00 L 119.25 116.00 L 118.00 117.25 L 118.00 118.50 L 112.50 124.00 L 110.25 124.00 L 110.00 125.50 L 109.00 126.25 L 109.00 130.50 L 108.00 131.25 L 108.00 133.50 L 107.00 134.25 L 107.00 135.50 L 106.00 136.25 L 106.00 137.50 L 105.00 138.25 L 105.00 145.50 L 106.00 146.25 L 106.25 147.75 L 107.50 147.75 L 109.25 149.75 L 111.50 149.75 L 112.25 150.75 L 120.50 150.75 L 121.25 149.75 L 126.50 149.75 L 127.25 148.75 L 129.50 148.75 L 130.25 147.75 L 132.50 147.75 L 133.25 146.75 L 135.50 146.75 L 136.25 145.75 L 139.50 145.75 L 140.25 144.75 L 141.50 144.75 L 142.25 143.75 L 144.50 143.75 L 145.25 142.75 L 146.50 142.75 L 147.25 141.75 L 149.50 141.75 L 150.25 140.75 L 151.50 140.75 L 152.25 139.75 L 154.50 139.75 L 155.25 138.75 L 156.50 138.75 L 157.25 137.75 L 158.50 137.75 L 159.25 136.75 L 160.50 136.75 L 161.25 135.75 L 162.50 135.75 L 163.25 134.75 L 165.50 134.75 L 166.25 133.75 L 167.50 133.75 L 169.25 131.75 L 170.50 131.75 L 171.25 130.75 L 173.50 130.75 L 175.25 128.75 L 176.50 128.75 L 177.25 127.75 L 178.50 127.75 L 179.25 126.75 L 180.50 126.75 L 181.25 125.75 L 182.50 125.75 L 183.25 124.75 L 184.50 124.75 L 185.25 123.75 L 186.50 123.75 L 188.25 121.75 L 189.50 121.75 L 190.25 120.75 L 191.50 120.75 L 192.25 119.75 L 193.50 119.75 L 194.25 118.75 L 195.50 118.75 L 196.25 117.75 L 197.50 117.75 L 199.75 115.50 Z M 279.50 60.00 L 277.25 60.00 L 276.50 61.00 L 274.25 61.00 L 273.50 62.00 L 271.25 62.00 L 269.50 64.00 L 267.25 64.00 L 265.50 66.00 L 264.25 66.00 L 262.50 68.00 L 257.50 63.00 L 256.00 63.25 L 256.25 114.75 L 268.50 114.75 L 269.75 113.50 L 269.75 81.25 L 271.75 79.50 L 271.75 78.25 L 272.25 77.75 L 273.50 77.75 L 275.25 75.75 L 276.50 75.75 L 277.25 74.75 L 279.75 74.50 L 279.75 73.25 L 280.75 72.25 L 280.75 62.50 L 279.75 61.50 Z M 141.75 54.25 L 140.50 53.00 L 139.50 54.00 L 138.50 53.00 L 136.25 53.00 L 135.50 54.00 L 134.25 54.00 L 133.00 55.25 L 134.00 56.25 L 134.00 59.50 L 135.50 59.75 L 137.25 57.75 L 138.50 57.75 Z M 94.25 53.00 L 94.00 114.50 L 118.50 114.75 L 119.25 113.75 L 121.50 113.75 L 122.25 112.75 L 123.50 112.75 L 124.25 111.75 L 125.50 111.75 L 131.75 105.50 L 131.75 104.25 L 132.50 103.75 L 132.75 102.25 L 133.50 101.75 L 134.00 102.25 L 134.00 114.50 L 142.50 114.75 L 142.75 112.25 L 143.75 111.50 L 142.75 110.50 L 142.75 100.25 L 143.75 99.50 L 143.75 97.50 L 142.75 96.50 L 142.75 95.25 L 143.75 94.25 L 143.75 73.50 L 142.75 72.50 L 142.75 69.25 L 143.75 68.25 L 143.50 64.00 L 141.25 62.00 L 139.50 64.00 L 138.25 64.00 L 136.50 66.00 L 135.25 66.00 L 134.00 67.25 L 134.00 93.50 L 133.25 94.00 L 132.75 93.50 L 132.50 92.00 L 131.75 91.50 L 131.75 90.25 L 125.50 84.00 L 124.25 84.00 L 123.75 83.50 L 128.75 78.50 L 128.75 77.25 L 129.75 76.50 L 129.75 74.25 L 130.75 73.50 L 130.75 65.25 L 129.75 64.50 L 129.50 63.00 L 127.25 63.00 L 123.50 67.00 L 122.25 67.00 L 121.50 68.00 L 120.25 68.00 L 117.00 71.25 L 117.00 72.50 L 115.50 74.00 L 113.25 74.00 L 112.50 75.00 L 107.25 75.00 L 106.75 74.50 L 106.75 66.25 L 107.25 65.75 L 113.50 65.75 L 114.25 66.75 L 117.50 66.75 L 119.25 64.75 L 120.50 64.75 L 122.25 62.75 L 123.50 62.75 L 126.75 59.50 L 126.75 58.25 L 124.50 56.00 L 123.25 56.00 L 121.50 54.00 L 118.25 54.00 L 117.50 53.00 Z M 106.75 92.25 L 108.25 90.75 L 114.50 90.75 L 115.25 91.75 L 116.50 91.75 L 119.00 94.25 L 119.00 98.50 L 115.50 102.00 L 113.25 102.00 L 112.50 103.00 L 110.25 103.00 L 109.50 102.00 L 107.25 102.00 L 106.75 101.50 Z M 91.50 53.00 L 89.25 53.00 L 88.50 54.00 L 87.25 54.00 L 85.50 56.00 L 84.25 56.00 L 82.00 58.25 L 82.00 113.25 L 83.25 114.75 L 91.75 114.50 Z M 63.75 53.25 L 57.25 53.00 L 56.00 54.25 L 56.00 59.50 L 56.50 59.75 L 57.25 58.75 L 58.50 58.75 L 59.25 57.75 L 60.50 57.75 L 63.75 54.50 Z M 169.50 52.00 L 168.25 52.00 L 165.50 55.00 L 164.25 55.00 L 162.00 57.25 L 162.00 61.50 L 161.00 62.25 L 161.00 113.50 L 162.25 114.75 L 169.50 114.75 L 170.75 113.50 L 170.75 53.25 Z M 230.50 44.00 L 216.00 44.25 L 216.00 46.50 L 215.00 47.25 L 215.00 48.50 L 214.00 49.25 L 214.00 51.50 L 213.00 52.25 L 213.00 53.50 L 212.00 54.25 L 212.00 55.50 L 211.00 56.25 L 211.00 58.50 L 210.00 59.25 L 210.00 61.50 L 209.00 62.25 L 209.00 63.50 L 208.00 64.25 L 208.00 65.50 L 207.00 66.25 L 207.00 68.50 L 206.00 69.25 L 206.00 71.50 L 205.00 72.25 L 205.00 73.50 L 204.00 74.25 L 204.00 75.50 L 203.50 76.00 L 201.75 74.50 L 201.75 73.25 L 200.75 72.50 L 200.75 71.25 L 199.75 70.50 L 199.75 69.25 L 198.75 68.50 L 198.75 67.25 L 197.75 66.50 L 197.75 65.25 L 196.75 64.50 L 196.75 63.25 L 195.50 62.00 L 188.25 62.00 L 188.00 63.50 L 186.00 65.25 L 186.00 67.50 L 185.00 68.25 L 185.00 69.50 L 184.00 70.25 L 184.00 71.50 L 183.00 72.25 L 183.00 73.50 L 182.00 74.25 L 182.00 75.50 L 181.50 76.00 L 180.25 76.00 L 179.75 75.50 L 179.75 74.25 L 178.75 73.50 L 178.75 72.25 L 177.75 71.50 L 177.75 69.25 L 176.75 68.50 L 176.75 66.25 L 175.75 65.50 L 175.75 64.25 L 174.50 63.00 L 173.00 63.25 L 173.00 99.50 L 174.00 100.25 L 174.00 102.50 L 175.00 103.25 L 175.00 104.50 L 176.00 105.25 L 176.00 107.50 L 177.00 108.25 L 177.00 111.50 L 178.00 112.25 L 178.00 113.50 L 179.25 114.75 L 180.25 113.75 L 181.75 113.50 L 181.75 111.25 L 182.75 110.50 L 182.75 108.25 L 183.75 107.50 L 183.75 106.25 L 184.75 105.50 L 184.75 104.25 L 185.75 103.50 L 185.75 102.25 L 186.75 101.50 L 186.75 100.25 L 187.75 99.50 L 187.75 97.25 L 188.75 96.50 L 188.75 95.25 L 189.75 94.50 L 189.75 93.25 L 192.25 90.75 L 194.00 92.25 L 194.00 94.50 L 195.00 95.25 L 195.00 96.50 L 196.00 97.25 L 196.00 98.50 L 197.00 99.25 L 197.00 100.50 L 198.00 101.25 L 198.00 103.50 L 199.00 104.25 L 199.00 105.50 L 200.00 106.25 L 200.00 107.50 L 201.00 108.25 L 201.00 109.50 L 202.00 110.25 L 202.00 112.50 L 204.25 114.75 L 205.75 113.50 L 205.75 112.25 L 206.75 111.50 L 206.75 109.25 L 208.25 107.75 L 210.25 109.75 L 211.50 109.75 L 212.25 110.75 L 213.50 110.75 L 214.25 111.75 L 216.50 111.75 L 217.25 112.75 L 219.50 112.75 L 220.25 113.75 L 231.50 113.75 L 232.25 112.75 L 235.50 112.75 L 236.25 111.75 L 237.50 111.75 L 238.25 110.75 L 239.50 110.75 L 240.25 109.75 L 241.50 109.75 L 244.25 106.75 L 245.50 106.75 L 248.75 103.50 L 248.75 102.25 L 250.75 100.50 L 250.75 99.25 L 251.75 98.50 L 251.75 97.25 L 252.75 96.50 L 252.75 93.25 L 253.75 92.50 L 253.75 81.25 L 252.75 80.50 L 252.75 77.25 L 250.75 75.50 L 250.75 74.25 L 248.75 72.50 L 248.75 71.25 L 245.50 68.00 L 244.25 68.00 L 240.50 64.00 L 238.25 64.00 L 237.50 63.00 L 236.25 63.00 L 235.50 62.00 L 231.25 62.00 L 230.50 61.00 L 226.25 61.00 L 225.75 60.50 L 225.75 58.25 L 226.75 57.50 L 226.75 56.25 L 227.75 55.50 L 227.75 52.25 L 228.75 51.50 L 228.75 50.25 L 229.75 49.50 L 229.75 48.25 L 230.75 47.50 Z M 242.50 87.75 L 243.00 88.25 L 243.00 91.50 L 242.00 92.25 L 242.00 93.50 L 241.25 94.00 L 241.00 95.50 L 238.25 98.00 L 237.75 97.50 L 237.75 96.25 L 239.50 94.75 L 239.75 92.25 L 240.75 91.50 L 240.75 90.25 L 241.50 89.75 L 241.75 88.25 Z M 240.75 81.00 L 241.75 80.75 L 242.00 81.75 L 241.00 82.00 Z M 223.25 71.75 L 231.50 71.75 L 232.25 72.75 L 233.50 72.75 L 234.25 73.75 L 235.50 73.75 L 237.00 75.50 L 238.50 75.75 L 239.00 76.25 L 238.50 77.00 L 235.25 77.00 L 234.50 76.00 L 232.25 76.00 L 229.00 79.25 L 230.00 80.50 L 229.50 81.00 L 228.00 81.25 L 228.00 83.50 L 226.00 85.25 L 226.00 87.50 L 225.00 88.25 L 225.00 89.50 L 224.00 90.25 L 224.00 93.50 L 226.25 95.75 L 228.50 95.75 L 230.00 97.25 L 230.00 101.50 L 231.00 102.25 L 230.50 103.00 L 222.25 103.00 L 220.75 101.50 L 221.75 100.50 L 221.75 97.25 L 220.25 97.00 L 217.50 94.00 L 216.25 94.00 L 215.50 93.00 L 213.25 93.00 L 212.25 94.00 L 210.75 92.50 L 210.75 91.25 L 209.75 90.50 L 209.75 87.25 L 210.25 86.75 L 211.00 87.25 L 211.00 88.25 L 212.00 89.25 L 212.00 90.50 L 212.50 90.75 L 213.75 89.50 L 213.75 87.25 L 215.25 85.75 L 216.50 85.75 L 217.25 84.75 L 218.75 84.50 L 218.75 82.25 L 217.75 81.50 L 217.75 80.25 L 216.25 80.00 L 215.50 79.00 L 214.00 80.25 L 214.00 81.50 L 213.50 82.00 L 212.25 82.00 L 211.75 81.50 L 211.75 80.25 L 212.75 79.50 L 212.75 78.25 L 215.25 75.75 L 216.50 75.75 L 217.25 74.75 L 217.75 74.75 L 218.00 75.50 L 217.00 76.00 L 217.00 76.50 L 218.50 76.75 L 219.00 77.25 L 219.00 79.50 L 220.25 80.75 L 221.25 79.75 L 222.50 79.75 L 224.75 77.50 L 224.75 76.25 L 225.75 75.50 L 225.75 73.25 L 223.25 73.00 L 222.75 72.50 Z M 162.00 49.50 L 163.50 49.75 L 167.25 45.75 L 168.50 45.75 L 169.75 44.25 L 162.25 44.00 Z M 82.00 49.50 L 85.50 49.75 L 90.75 44.25 L 83.25 44.00 L 82.00 45.50 Z M 4.25 44.00 L 4.00 45.50 L 5.25 46.75 L 6.50 46.75 L 10.00 50.25 L 10.00 60.50 L 12.00 62.25 L 12.00 63.50 L 10.00 65.25 L 10.00 108.50 L 9.00 109.25 L 9.00 110.50 L 7.00 112.25 L 6.75 113.00 L 5.00 113.25 L 5.00 114.50 L 9.50 114.75 L 10.25 115.75 L 11.50 115.75 L 12.25 114.75 L 37.50 114.75 L 38.25 113.75 L 41.50 113.75 L 42.25 112.75 L 43.50 112.75 L 45.25 110.75 L 46.50 110.75 L 52.75 104.50 L 52.75 103.25 L 53.75 102.50 L 53.75 100.25 L 54.75 99.25 L 54.75 91.50 L 53.75 90.50 L 53.75 88.25 L 50.75 85.50 L 50.75 84.25 L 46.50 80.00 L 45.25 80.00 L 43.75 78.50 L 46.25 75.75 L 47.75 75.50 L 47.75 74.25 L 49.75 72.50 L 49.75 71.25 L 50.75 70.50 L 50.75 69.25 L 51.75 68.50 L 51.75 58.25 L 50.75 57.50 L 50.75 55.25 L 49.75 54.50 L 49.75 53.25 L 47.75 51.50 L 47.75 50.25 L 46.25 50.00 L 43.50 47.00 L 42.25 47.00 L 41.50 46.00 L 40.25 46.00 L 39.50 45.00 L 37.25 45.00 L 36.50 44.00 Z M 6.75 113.00 L 8.50 112.75 L 9.00 113.50 L 8.50 114.00 L 7.25 114.00 Z M 24.75 87.25 L 25.25 86.75 L 31.50 86.75 L 32.25 87.75 L 35.50 87.75 L 38.00 90.25 L 38.00 91.50 L 39.00 92.25 L 39.00 95.50 L 38.00 96.25 L 38.00 97.50 L 37.50 98.00 L 36.25 98.00 L 36.00 99.50 L 35.50 100.00 L 33.25 100.00 L 32.50 101.00 L 25.25 101.00 L 24.75 100.50 Z M 24.75 59.25 L 25.25 58.75 L 32.50 58.75 L 33.25 59.75 L 34.50 59.75 L 36.00 61.25 L 36.00 66.50 L 34.50 68.00 L 33.25 68.00 L 32.50 69.00 L 25.25 69.00 L 24.75 68.50 Z M 79.50 29.00 L 78.25 29.00 L 75.50 32.00 L 74.25 32.00 L 71.50 35.00 L 70.25 35.00 L 69.50 36.00 L 68.25 36.00 L 67.00 37.25 L 67.00 60.50 L 66.00 61.25 L 66.00 65.50 L 65.50 66.00 L 64.75 65.50 L 64.75 62.50 L 64.50 62.00 L 63.25 62.00 L 62.50 63.00 L 61.25 63.00 L 60.50 64.00 L 59.25 64.00 L 56.00 67.25 L 56.00 109.50 L 55.00 110.25 L 55.00 111.50 L 56.00 112.25 L 56.25 114.75 L 64.75 114.50 L 64.75 67.25 L 65.25 66.75 L 66.00 67.25 L 66.00 68.25 L 67.00 69.25 L 67.00 73.50 L 66.00 74.50 L 66.00 80.25 L 67.00 81.25 L 67.00 82.50 L 66.00 83.50 L 66.00 91.25 L 67.00 92.25 L 67.00 93.50 L 66.00 94.50 L 66.00 107.25 L 67.00 108.25 L 67.00 109.50 L 66.25 110.00 L 66.00 111.25 L 67.00 112.25 L 67.00 114.50 L 79.50 114.75 L 80.75 113.25 L 80.75 110.50 L 79.75 109.50 L 80.75 108.25 L 80.75 95.50 L 79.75 94.50 L 79.75 93.25 L 80.75 92.25 L 80.75 60.50 L 79.75 59.50 L 79.75 49.25 L 80.75 48.50 L 79.75 47.50 L 79.75 46.25 L 80.75 45.50 L 79.75 44.25 L 80.75 43.25 L 79.75 42.50 L 79.75 35.25 L 80.75 34.50 L 80.75 33.25 L 79.75 32.50 Z M 294.50 28.00 L 293.25 28.00 L 292.50 29.00 L 291.25 29.00 L 289.50 31.00 L 288.25 31.00 L 285.50 34.00 L 284.25 34.00 L 282.00 36.25 L 282.00 114.50 L 283.25 115.75 L 284.25 114.75 L 287.50 114.75 L 288.25 115.75 L 290.50 115.75 L 291.25 114.75 L 294.50 114.75 L 295.75 113.50 L 295.75 30.25 L 294.75 29.50 Z M 158.50 20.00 L 157.25 20.00 L 155.50 22.00 L 154.25 22.00 L 153.50 23.00 L 152.25 23.00 L 148.50 27.00 L 147.25 27.00 L 146.00 28.25 L 146.00 51.50 L 145.00 52.25 L 145.00 54.50 L 146.00 55.25 L 146.00 58.50 L 145.00 59.25 L 146.00 60.25 L 146.00 61.50 L 145.00 62.25 L 145.00 69.50 L 146.00 70.25 L 146.00 71.50 L 145.00 72.25 L 145.00 98.25 L 146.00 99.25 L 146.00 100.50 L 145.00 101.25 L 146.00 102.25 L 145.00 103.25 L 145.00 105.50 L 146.00 106.25 L 146.00 107.50 L 145.00 108.50 L 146.00 109.50 L 145.00 110.25 L 145.00 113.50 L 146.25 114.75 L 158.50 114.75 L 158.75 113.25 L 159.75 112.25 L 159.75 110.50 L 158.75 109.50 L 158.75 92.25 L 159.75 91.50 L 158.75 90.50 L 159.75 89.25 L 159.75 85.50 L 158.75 84.50 L 159.75 83.25 L 159.75 76.50 L 158.75 75.50 L 158.75 74.25 L 159.75 73.25 L 159.75 68.50 L 158.75 67.25 L 159.75 66.25 L 159.75 65.50 L 158.75 64.50 Z M 340.50 17.00 L 339.50 18.00 L 338.25 18.00 L 335.50 21.00 L 334.25 21.00 L 331.50 24.00 L 330.25 24.00 L 328.00 26.25 L 328.00 65.50 L 327.25 66.00 L 326.50 65.00 L 324.25 65.00 L 323.50 64.00 L 321.25 64.00 L 320.50 63.00 L 319.50 64.00 L 318.50 63.00 L 312.25 63.00 L 311.50 64.00 L 307.25 64.00 L 306.50 65.00 L 305.25 65.00 L 304.50 66.00 L 303.25 66.00 L 302.50 67.00 L 301.25 67.00 L 299.50 69.00 L 298.00 69.25 L 298.00 71.50 L 297.00 72.50 L 297.00 106.25 L 298.00 107.25 L 298.25 108.75 L 299.50 108.75 L 302.25 111.75 L 303.50 111.75 L 304.25 112.75 L 305.50 112.75 L 306.25 113.75 L 307.50 113.75 L 308.25 114.75 L 324.50 114.75 L 325.25 113.75 L 327.50 113.75 L 328.25 112.75 L 329.50 112.75 L 331.25 110.75 L 332.50 110.75 L 333.25 109.75 L 334.50 109.75 L 338.25 113.75 L 339.50 113.75 L 340.25 114.75 L 341.75 113.50 L 341.75 92.25 L 340.75 91.50 L 340.75 90.25 L 339.75 89.50 L 339.75 88.25 L 340.25 87.75 L 341.75 87.50 L 341.75 18.25 Z M 312.25 78.75 L 320.50 78.75 L 321.25 79.75 L 322.50 79.75 L 324.00 81.25 L 324.00 82.50 L 325.00 83.25 L 325.00 84.50 L 326.00 85.25 L 326.00 92.50 L 325.00 93.25 L 325.00 95.50 L 321.50 99.00 L 320.25 99.00 L 319.50 100.00 L 312.25 100.00 L 307.75 95.50 L 307.75 94.25 L 306.75 93.50 L 306.75 86.25 L 307.75 85.50 L 307.75 83.25 L 309.75 81.50 L 309.75 80.25 L 310.25 79.75 L 311.50 79.75 Z M 287.75 9.25 L 285.75 7.50 L 285.75 6.25 L 284.25 6.00 L 283.50 5.00 L 281.25 5.00 L 280.50 4.00 L 272.25 4.00 L 271.50 5.00 L 268.25 5.00 L 267.50 6.00 L 265.25 6.00 L 264.50 7.00 L 262.25 7.00 L 261.50 8.00 L 259.25 8.00 L 258.50 9.00 L 256.25 9.00 L 255.50 10.00 L 252.25 10.00 L 250.50 12.00 L 248.25 12.00 L 246.50 14.00 L 244.25 14.00 L 243.50 15.00 L 242.25 15.00 L 241.50 16.00 L 240.25 16.00 L 239.50 17.00 L 238.25 17.00 L 237.50 18.00 L 235.25 18.00 L 234.50 19.00 L 233.25 19.00 L 232.50 20.00 L 231.25 20.00 L 230.50 21.00 L 229.25 21.00 L 228.50 22.00 L 227.25 22.00 L 226.50 23.00 L 225.25 23.00 L 224.50 24.00 L 223.25 24.00 L 221.50 26.00 L 220.25 26.00 L 218.50 28.00 L 216.25 28.00 L 215.50 29.00 L 214.25 29.00 L 213.50 30.00 L 205.25 30.00 L 204.00 31.25 L 204.00 33.50 L 203.00 34.25 L 203.00 35.50 L 200.50 38.00 L 199.25 38.00 L 198.50 39.00 L 197.25 39.00 L 196.50 40.00 L 195.25 40.00 L 193.50 42.00 L 192.25 42.00 L 190.50 44.00 L 189.25 44.00 L 187.50 46.00 L 186.25 46.00 L 184.50 48.00 L 183.25 48.00 L 181.50 50.00 L 180.25 50.00 L 178.50 52.00 L 176.25 52.00 L 174.00 54.25 L 174.00 55.50 L 174.50 55.75 L 175.25 54.75 L 176.50 54.75 L 177.25 53.75 L 178.50 53.75 L 180.25 51.75 L 181.50 51.75 L 183.25 49.75 L 184.50 49.75 L 186.25 47.75 L 187.50 47.75 L 188.25 46.75 L 189.50 46.75 L 190.25 45.75 L 191.50 45.75 L 193.25 43.75 L 194.50 43.75 L 195.25 42.75 L 196.50 42.75 L 197.25 41.75 L 198.50 41.75 L 200.25 39.75 L 201.50 39.75 L 202.25 38.75 L 203.50 38.75 L 204.25 37.75 L 206.50 37.75 L 207.25 38.75 L 208.50 38.75 L 209.25 37.75 L 211.50 37.75 L 211.75 36.25 L 213.75 34.50 L 213.75 33.25 L 215.25 31.75 L 216.50 31.75 L 217.25 30.75 L 218.50 30.75 L 220.25 28.75 L 221.50 28.75 L 222.25 27.75 L 223.50 27.75 L 224.25 26.75 L 225.50 26.75 L 226.25 25.75 L 227.50 25.75 L 228.25 24.75 L 229.50 24.75 L 230.25 23.75 L 231.50 23.75 L 232.25 22.75 L 233.50 22.75 L 234.25 21.75 L 235.50 21.75 L 236.25 20.75 L 237.50 20.75 L 238.25 19.75 L 239.50 19.75 L 241.25 17.75 L 243.50 17.75 L 244.25 16.75 L 245.50 16.75 L 246.25 15.75 L 248.50 15.75 L 249.25 14.75 L 250.50 14.75 L 251.25 13.75 L 252.50 13.75 L 253.25 12.75 L 255.50 12.75 L 256.25 11.75 L 259.50 11.75 L 260.25 10.75 L 261.50 10.75 L 262.25 9.75 L 265.50 9.75 L 266.25 8.75 L 270.50 8.75 L 271.25 7.75 L 280.50 7.75 L 281.25 8.75 L 282.50 8.75 L 284.00 10.25 L 284.00 15.50 L 283.00 16.25 L 283.00 17.50 L 282.00 18.25 L 282.00 19.50 L 281.00 20.25 L 281.00 21.50 L 279.00 23.25 L 279.00 24.50 L 277.00 26.25 L 277.00 27.50 L 273.00 31.25 L 273.00 32.50 L 268.50 37.00 L 267.50 36.00 L 262.25 36.00 L 261.50 37.00 L 260.25 37.00 L 259.50 38.00 L 258.25 38.00 L 257.00 39.25 L 257.00 40.50 L 256.00 41.25 L 256.00 42.50 L 255.00 43.25 L 255.00 47.50 L 256.00 48.25 L 256.00 49.50 L 255.00 50.25 L 255.00 51.50 L 253.50 53.00 L 252.25 53.00 L 243.00 62.25 L 243.25 63.75 L 244.50 63.75 L 247.25 66.75 L 248.50 66.75 L 258.75 56.50 L 258.75 55.25 L 260.25 53.75 L 261.50 53.75 L 262.25 52.75 L 264.50 52.75 L 265.25 51.75 L 267.50 51.75 L 271.75 47.50 L 271.75 41.25 L 272.75 40.50 L 272.75 39.25 L 277.75 34.50 L 277.75 33.25 L 278.75 32.50 L 278.75 31.25 L 280.75 29.50 L 280.75 28.25 L 281.75 27.50 L 281.75 26.25 L 283.75 24.50 L 283.75 23.25 L 284.75 22.50 L 284.75 21.25 L 285.75 20.50 L 285.75 19.25 L 286.75 18.50 L 286.75 16.25 L 287.75 15.50 Z" fill="#00AEEF" fill-rule="evenodd"/>
</svg>
